<?xml version="1.0" encoding="UTF-8"?>
<svg width="349px" height="267px" viewBox="0 0 349 267" version="1.1" xmlns="http://www.w3.org/2000/svg" xmlns:xlink="http://www.w3.org/1999/xlink">
    <title>doorway</title>
    <g id="Page-1" stroke="none" stroke-width="1" fill="none" fill-rule="evenodd">
        <g id="doorway_transparent">
            <path d="M214.902344,10.34375 C155.74554,18.2502454 140.011396,59.7443018 130.96875,113.488281 C123.056434,160.514269 122.835401,207.215806 123.554688,254.710938" id="Path" stroke="#594232"></path>
            <path d="M213.882812,11.9335937 C247.454952,9.2003357 269.697557,18.9201295 287.082031,46.875 C314.948619,91.6854929 325.110717,118.499891 327.757813,171.503906 C329.102849,198.436184 329.414062,225.410156 330.242188,252.363281" id="Path-2" stroke="#594232"></path>
            <path d="M121.96875,254.304688 C191.708299,252.952519 260.901113,255.460628 330.609375,254.886719" id="Path-3" stroke="#594232"></path>
            <path d="M213.585938,12.2773438 C218.173812,93.3780253 220.693573,174.262251 226.730469,255.246094" id="Path-4" stroke="#594232"></path>
            <path d="M207.40625,148.707031 C200.999273,144.857012 204.835374,155.493774 207.609375,149.15625" id="Path-5" stroke="#252322" fill-opacity="0.5" fill="#252322"></path>
            <path d="M234.472656,147.546875 C227.893873,150.786427 235.192169,152.590007 235.183601,147.496094" id="Path-6" stroke="#252322" fill-opacity="0.5" fill="#252322"></path>
            <path d="M0.984375,253.828125 C20.7323804,240.837961 27.6681271,249.714488 49.7734375,256.269531 C71.8439912,262.814267 107.101769,259.686806 125.429688,244.53125 C160.475883,215.551168 123.378516,155.299142 115.554688,126.644531 C114.197877,121.67524 114.981906,116.215913 116.167969,111.203125 C118.986963,99.2889008 122.741275,87.5481853 127.476563,76.2578125 C135.177097,57.8973874 158.512932,54.4106196 169.625,39.5078125 C179.177543,26.6965419 187.148639,7.30252217 205.679687,4.53125 C223.665744,1.84148003 228.518905,19.1914275 247.171875,21.03125" id="Path-7" stroke="#2F6610"></path>
            <path d="M246.175781,21.4023438 C268.093966,22.3748229 291.2072,16.6031941 298.246094,46.5117188 C299.084387,50.0736593 296.241906,73.7453265 301.792969,82.015625 C312.539164,98.0259355 344.100393,111.255895 344.335938,128.414063 C344.679247,153.422376 316.520352,172.857874 321.4375,199.738281 C325.553723,222.240301 344.724843,226.651245 341.980469,253.058594" id="Path-8" stroke="#2F6610"></path>
            <path d="M216.53125,11.8828125 C146.393413,23.2348031 126.0919,87.3907135 124.710937,151.484375 C124.097036,179.976963 125.44203,208.482142 125.21875,236.980469 C125.181465,241.739344 119.528544,249.388634 123.929687,251.199219 C137.387928,256.735797 152.93123,253.793307 167.472656,254.363281 C186.330977,255.102463 212.436764,269.973548 224.085937,255.125 L228.148437,254.09375 C235.185239,245.124334 229.205855,233.606795 228.363281,224.214844 C227.819366,218.151953 228.850611,212.020511 228.359375,205.953125 C227.346943,193.448318 224.631085,181.107905 223.859375,168.585938 C210.409935,-49.6481615 228.0259,165.252644 215.914062,24.0234375 L216.53125,11.8828125 Z" id="Path-9" fill-opacity="0.5" fill="#5A3A28"></path>
            <path d="M212.464844,10.6998492 C229.500505,114.011392 212.65242,-4.58482212 220.278084,139.712971 C221.441093,161.720172 226.553169,183.413515 228.154065,205.396117 C229.31466,221.332753 216.652913,241.97734 228.551419,253.317763 C237.200251,261.560933 278.5604,252.257527 295.930162,251.356127 C308.983168,250.678745 325.272929,258.489703 335.134393,250.37531 C336.971607,248.863579 336.758439,210.388468 335.393719,201.674547 C326.394926,144.216013 317.446976,70.0157554 266.730895,28.125183 C255.725278,19.0347412 230.503345,14.5357313 218.92708,11.4947862 L212.464844,10.6998492 Z" id="Path-10" fill-opacity="0.5" fill="#5A3A28"></path>
            <path d="M12.5226297,248.336569 C7.09094794,246.746432 11.5474753,236.402353 12.5096357,249.437513" id="Path-11" stroke="#1F430B" fill-opacity="0.5" fill="#34632B"></path>
            <path d="M20.6143304,248.056608 C19.1613234,250.353154 17.8660781,258.819272 21.3490805,248.90476" id="Path-12" stroke="#1F430B" fill-opacity="0.5" fill="#34632B"></path>
            <path d="M28.9103909,249.040606 C26.8677159,244.174101 31.9867467,239.485179 28.7603696,249.657229" id="Path-13" stroke="#1F430B" fill-opacity="0.5" fill="#34632B"></path>
            <path d="M35.1782105,252.342256 C31.1796848,255.178711 36.5117949,259.978825 36.505963,253.170327" id="Path-14" stroke="#1F430B" fill-opacity="0.5" fill="#34632B"></path>
            <path d="M46.2124552,254.671721 C45.8126212,246.967703 47.8779784,251.027649 46.7357579,254.402392" id="Path-15" stroke="#1F430B" fill-opacity="0.5" fill="#34632B"></path>
            <path d="M54.5723043,258.858143 C52.9747998,267.271338 56.9345556,269.834391 54.697519,259.532648" id="Path-16" stroke="#1F430B" fill-opacity="0.5" fill="#34632B"></path>
            <path d="M63.4424621,258.841605 C60.4557092,254.040456 62.5732634,251.677716 62.6805428,258.186" id="Path-17" stroke="#1F430B" fill-opacity="0.5" fill="#34632B"></path>
            <path d="M70.1898774,260.393794 C69.9789212,264.079095 73.4971523,268.152933 70.3032793,260.685568" id="Path-18" stroke="#1F430B" fill-opacity="0.5" fill="#34632B"></path>
            <path d="M77.5279278,259.566905 C72.9140279,254.654088 80.3153748,254.287828 77.3436496,259.894117" id="Path-19" stroke="#1F430B" fill-opacity="0.5" fill="#34632B"></path>
            <path d="M84.4230018,260.722187 C84.9221098,266.572413 90.5531385,267.429061 85.4637008,261.086018" id="Path-20" stroke="#1F430B" fill-opacity="0.5" fill="#34632B"></path>
            <path d="M91.3865895,258.187181 C87.3969993,255.755613 91.6433648,249.208057 90.9010875,260.080757" id="Path-21" stroke="#1F430B" fill-opacity="0.5" fill="#34632B"></path>
            <path d="M96.7353809,258.421073 C97.7417592,265.17522 102.020032,262.16111 97.5894393,257.74893" id="Path-22" stroke="#1F430B" fill-opacity="0.5" fill="#34632B"></path>
            <path d="M104.726674,255.294251 C99.320361,252.703281 100.468003,246.673243 102.520061,254.228745" id="Path-23" stroke="#1F430B" fill-opacity="0.5" fill="#34632B"></path>
            <path d="M109.964426,254.083449 C111.756325,258.17353 117.333417,258.534303 111.209484,254.844187" id="Path-24" stroke="#1F430B" fill-opacity="0.5" fill="#34632B"></path>
            <path d="M116.700028,249.961997 C112.302953,248.059729 115.350416,245.643205 116.051511,249.849776" id="Path-25" stroke="#1F430B" fill-opacity="0.5" fill="#34632B"></path>
            <path d="M122.113789,247.735303 C123.486981,252.548877 130.744974,248.762492 121.934236,247.554568" id="Path-26" stroke="#1F430B" fill-opacity="0.5" fill="#34632B"></path>
            <path d="M127.1271,242.140807 C122.401427,241.434283 126.948347,236.463028 126.941641,241.899828 L127.1271,242.140807 Z" id="Path-27" stroke="#1F430B" fill-opacity="0.5" fill="#34632B"></path>
            <path d="M131.809655,238.571009 C135.315932,243.352296 139.596243,236.449677 131.8888,238.315854" id="Path-28" stroke="#1F430B" fill-opacity="0.5" fill="#34632B"></path>
            <path d="M135.290858,231.408968 C136.116764,225.340633 124.90558,232.022226 137.190341,230.449776" id="Path-29" stroke="#1F430B" fill-opacity="0.5" fill="#34632B"></path>
            <path d="M138.446031,225.670357 C145.016289,220.699756 142.377691,226.332872 139.211494,225.92433" id="Path-30" stroke="#1F430B" fill-opacity="0.5" fill="#34632B"></path>
            <path d="M139.113449,217.056535 C133.092008,214.808705 132.142423,218.871649 138.959884,216.797837" id="Path-31" stroke="#1F430B" fill-opacity="0.5" fill="#34632B"></path>
            <path d="M139.628482,212.099925 C142.515419,207.427116 147.087114,210.967391 139.834023,211.336825" id="Path-32" stroke="#1F430B" fill-opacity="0.5" fill="#34632B"></path>
            <path d="M139.724165,203.860566 C135.901668,201.63443 133.495996,207.163451 139.050841,203.636124" id="Path-33" stroke="#1F430B" fill-opacity="0.5" fill="#34632B"></path>
            <path d="M139.461923,198.863793 C143.996802,191.528918 144.805687,205.58298 140.525067,198.966563" id="Path-34" stroke="#1F430B" fill-opacity="0.5" fill="#34632B"></path>
            <path d="M136.443778,192.001794 C131.937904,186.643848 131.693387,197.608171 135.95237,191.922649" id="Path-35" stroke="#1F430B" fill-opacity="0.5" fill="#34632B"></path>
            <path d="M136.590256,185.497721 C141.871669,178.078095 139.43234,189.083557 136.616244,184.082559" id="Path-36" stroke="#1F430B" fill-opacity="0.5" fill="#34632B"></path>
            <path d="M132.823185,177.747407 C125.953972,175.651715 129.410735,185.287403 132.829091,178.151401" id="Path-37" stroke="#1F430B" fill-opacity="0.5" fill="#34632B"></path>
            <path d="M132.224281,172.074948 C135.338118,167.700524 136.268189,171.385453 132.407378,171.700485" id="Path-38" stroke="#1F430B" fill-opacity="0.5" fill="#34632B"></path>
            <path d="M129.118722,165.765784 C125.374863,163.268823 124.403178,172.454583 128.30837,165.566149" id="Path-39" stroke="#1F430B" fill-opacity="0.5" fill="#34632B"></path>
            <path d="M127.802787,159.082157 C129.408393,153.96723 134.140433,159.674332 127.507469,158.788021" id="Path-40" stroke="#1F430B" fill-opacity="0.5" fill="#34632B"></path>
            <path d="M125.004358,155.26311 C117.326487,154.593296 124.440321,160.100126 124.432623,155.543071" id="Path-41" stroke="#1F430B" fill-opacity="0.5" fill="#34632B"></path>
            <path d="M124.83898,149.878881 C127.099999,146.374393 130.317334,150.605301 124.489324,150.454159" id="Path-42" stroke="#1F430B" fill-opacity="0.5" fill="#34632B"></path>
            <path d="M121.167592,145.335716 C113.561172,143.266499 118.271642,149.194603 119.611859,145.404229" id="Path-43" stroke="#1F430B" fill-opacity="0.5" fill="#34632B"></path>
            <path d="M120.061923,139.248631 C122.3425,134.922114 126.668052,140.790923 120.052473,138.744228" id="Path-44" stroke="#1F430B" fill-opacity="0.5" fill="#34632B"></path>
            <path d="M116.964633,134.545994 C112.155897,126.351194 113.270466,140.428749 116.234608,134.032141" id="Path-45" stroke="#1F430B" fill-opacity="0.5" fill="#34632B"></path>
            <path d="M115.698311,128.19076 C118.968212,123.57443 120.87847,127.699882 116.378723,127.39104" id="Path-46" stroke="#1F430B" fill-opacity="0.5" fill="#34632B"></path>
            <path d="M114.136166,120.862161 C110.748791,119.112188 107.140541,122.419678 115.209886,121.639821" id="Path-47" stroke="#1F430B" fill-opacity="0.5" fill="#34632B"></path>
            <path d="M115.148577,115.632314 C121.848405,114.981628 118.493004,117.664646 116.742619,115.741219" id="Path-48" stroke="#1F430B" fill-opacity="0.5" fill="#34632B"></path>
            <path d="M115.83266,109.576405 C111.427259,104.942393 111.032621,109.278734 116.845877,109.022201" id="Path-49" stroke="#1F430B" fill-opacity="0.5" fill="#34632B"></path>
            <path d="M118.319721,102.753322 C121.52343,99.3773707 120.629679,108.761671 117.996233,104.435295" id="Path-50" stroke="#1F430B" fill-opacity="0.5" fill="#34632B"></path>
            <path d="M120.147707,95.1904945 C115.439823,92.9525169 116.515766,96.5599542 119.569302,95.4801004" id="Path-51" stroke="#1F430B" fill-opacity="0.5" fill="#34632B"></path>
            <path d="M123.733495,88.2351129 C128.029193,88.5338434 127.220751,91.2643788 123.927911,88.7401082" id="Path-52" stroke="#1F430B" fill-opacity="0.5" fill="#34632B"></path>
            <path d="M124.120712,83.2392096 C122.780674,76.0396161 119.772656,81.0643636 124.298187,82.5648071" id="Path-53" stroke="#1F430B" fill-opacity="0.5" fill="#34632B"></path>
            <path d="M127.478204,77.243803 C133.151988,76.6331929 130.634282,81.7884982 127.095828,77.9867752" id="Path-54" stroke="#1F430B" fill-opacity="0.5" fill="#34632B"></path>
            <path d="M129.095641,72.2261187 C128.587688,66.9126173 126.58953,71.2163352 128.929461,72.1623893 L129.095641,72.2261187 Z" id="Path-55" stroke="#1F430B" fill-opacity="0.5" fill="#34632B"></path>
            <path d="M132.796788,68.1119403 C136.295046,69.7062195 137.12229,73.2863128 133.30017,69.5502894" id="Path-56" stroke="#1F430B" fill-opacity="0.5" fill="#34632B"></path>
            <path d="M137.155397,62.7739955 C135.674528,56.8834551 133.732101,61.1261825 137.429676,63.5201946" id="Path-57" stroke="#1F430B" fill-opacity="0.5" fill="#34632B"></path>
            <path d="M141.505133,61.5195745 C142.923598,64.2997657 146.285773,66.0393309 141.651146,60.8459786" id="Path-58" stroke="#1F430B" fill-opacity="0.5" fill="#34632B"></path>
            <path d="M145.783072,56.7931095 C136.43361,55.9352227 145.676365,46.7398175 144.406032,55.7992531" id="Path-59" stroke="#1F430B" fill-opacity="0.5" fill="#34632B"></path>
            <path d="M151.434017,55.5467555 C152.256833,60.7571185 154.832897,58.6954569 151.50178,55.9759207" id="Path-60" stroke="#1F430B" fill-opacity="0.5" fill="#34632B"></path>
            <path d="M155.732123,50.9751772 C151.154674,49.9473478 155.283027,45.5211259 155.867649,50.5928006" id="Path-61" stroke="#1F430B" fill-opacity="0.5" fill="#34632B"></path>
            <path d="M160.660263,48.8882401 C160.802855,52.5757292 164.677806,52.6381066 160.833704,49.0632943" id="Path-62" stroke="#1F430B" fill-opacity="0.5" fill="#34632B"></path>
            <path d="M162.95533,45.5912504 C160.132046,43.6515035 162.72801,42.747266 162.873046,45.9663667" id="Path-63" stroke="#1F430B" fill-opacity="0.5" fill="#34632B"></path>
            <path d="M166.623402,43.6406458 C167.800093,48.0009782 170.489804,46.5432 167.463178,43.6616201" id="Path-64" stroke="#1F430B" fill-opacity="0.5" fill="#34632B"></path>
            <path d="M168.566746,38.7044385 C167.519072,33.9789032 164.688058,39.0968833 168.478009,39.1457043" id="Path-65" stroke="#1F430B" fill-opacity="0.5" fill="#34632B"></path>
            <path d="M172.679311,37.2547956 C173.030307,42.0111726 177.174994,39.5105101 173.405343,37.2088136" id="Path-66" stroke="#1F430B" fill-opacity="0.5" fill="#34632B"></path>
            <path d="M173.074595,32.0467298 C171.411546,27.5791572 167.404609,32.2548965 175.404349,32.4040986" id="Path-67" stroke="#1F430B" fill-opacity="0.5" fill="#34632B"></path>
            <path d="M177.605031,29.3241117 C178.289162,32.109302 182.134605,34.0572774 177.767179,29.0877481" id="Path-68" stroke="#1F430B" fill-opacity="0.5" fill="#34632B"></path>
            <path d="M178.974811,23.8070791 C173.753475,18.6722217 175.302977,23.8182796 179.978348,24.7936753" id="Path-69" stroke="#1F430B" fill-opacity="0.5" fill="#34632B"></path>
            <path d="M182.810677,20.4584606 C185.442901,25.7946342 186.155136,21.8516861 182.584801,19.7929317" id="Path-70" stroke="#1F430B" fill-opacity="0.5" fill="#34632B"></path>
            <path d="M186.669938,15.2568484 C186.245565,9.38800715 181.859778,12.6562195 186.079432,15.1350364" id="Path-71" stroke="#1F430B" fill-opacity="0.5" fill="#34632B"></path>
            <path d="M190.936583,11.7646369 C190.979886,16.4353386 193.641924,14.9937752 190.870433,12.21881" id="Path-72" stroke="#1F430B" fill-opacity="0.5" fill="#34632B"></path>
            <path d="M194.610302,8.15464706 L194.610302,8.15464706 Z" id="Path-73" stroke="#1F430B" fill-opacity="0.5" fill="#34632B"></path>
            <path d="M194.414274,9.00894411 C191.267163,6.1070943 193.502704,5.62534919 194.203725,8.74111916" id="Path-74" stroke="#1F430B" fill-opacity="0.5" fill="#34632B"></path>
            <path d="M199.068136,7.00751732 C198.169972,12.0700028 201.279609,11.6462978 199.778033,7.56252805" id="Path-75" stroke="#1F430B" fill-opacity="0.5" fill="#34632B"></path>
            <path d="M202.861247,4.95688173 C199.562021,-0.22072485 204.69832,0.62330683 203.075023,4.11387851" id="Path-76" stroke="#1F430B" fill-opacity="0.5" fill="#34632B"></path>
            <path d="M207.261804,5.29650313 C205.09913,8.4936559 208.744095,9.96670866 207.394103,5.78133082" id="Path-77" stroke="#1F430B" fill-opacity="0.5" fill="#34632B"></path>
            <path d="M211.395343,3.99690677 C212.32256,0.617948152 217.35344,1.92623383 211.751906,3.92995054" id="Path-78" stroke="#1F430B" fill-opacity="0.5" fill="#34632B"></path>
            <path d="M215.942721,6.62352734 C214.038438,8.00372224 214.201631,13.2366615 216.592115,6.97444255" id="Path-79" stroke="#1F430B" fill-opacity="0.5" fill="#34632B"></path>
            <path d="M220.263415,6.9486281 C224.067023,3.62788071 224.247295,6.20634238 221.256464,6.98170287" id="Path-80" stroke="#1F430B" fill-opacity="0.5" fill="#34632B"></path>
            <path d="M224.861614,11.2693221 C222.770524,12.4053369 222.014773,18.3870516 224.351779,12.2018692" id="Path-81" stroke="#1F430B" fill-opacity="0.5" fill="#34632B"></path>
            <path d="M228.788638,12.9383878 C228.116616,7.91193015 231.594033,9.69337192 229.30654,12.5794056" id="Path-82" stroke="#1F430B" fill-opacity="0.5" fill="#34632B"></path>
            <path d="M231.480601,16.0345088 C229.183297,20.2811053 232.3517,22.1942205 231.30232,16.085331" id="Path-83" stroke="#1F430B" fill-opacity="0.5" fill="#34632B"></path>
            <path d="M236.420035,17.9149303 C232.733982,13.1279208 239.406926,12.9764769 236.461984,17.6245177" id="Path-84" stroke="#1F430B" fill-opacity="0.5" fill="#34632B"></path>
            <path d="M238.957112,19.9268442 C236.449581,22.110626 241.743982,28.0275259 238.502939,19.5089728" id="Path-85" stroke="#1F430B" fill-opacity="0.5" fill="#34632B"></path>
            <path d="M242.558228,20.1535274 C243.20692,16.5340156 246.320603,17.8317447 242.68972,19.846174" id="Path-86" stroke="#1F430B" fill-opacity="0.5" fill="#34632B"></path>
            <path d="M246.421522,21.912137 C245.993064,25.363374 247.853027,28.4612074 247.005574,22.4348796" id="Path-87" stroke="#1F430B" fill-opacity="0.5" fill="#34632B"></path>
            <path d="M250.257389,22.1081655 C250.326139,18.3649495 254.322539,17.4266277 251.145567,21.5652553" id="Path-88" stroke="#1F430B" fill-opacity="0.5" fill="#34632B"></path>
            <path d="M254.770884,21.9952272 C253.670565,26.8590814 255.672637,25.6947896 254.991114,22.420359" id="Path-89" stroke="#1F430B" fill-opacity="0.5" fill="#34632B"></path>
            <path d="M258.084008,21.5733223 L258.084008,21.5733223 Z" id="Path-90" stroke="#1F430B" fill-opacity="0.5" fill="#34632B"></path>
            <path d="M258.668867,21.0118579 C257.002818,16.6280452 259.582759,17.4711807 258.914104,21.544281" id="Path-91" stroke="#1F430B" fill-opacity="0.5" fill="#34632B"></path>
            <path d="M263.688971,22.3566296 C261.602356,26.1364059 263.911309,28.5890079 263.693005,23.3601664" id="Path-92" stroke="#1F430B" fill-opacity="0.5" fill="#34632B"></path>
            <path d="M266.98822,21.1665117 C265.719599,17.3949088 272.675648,17.6559837 266.656456,21.3929441" id="Path-93" stroke="#1F430B" fill-opacity="0.5" fill="#34632B"></path>
            <path d="M270.336771,23.0303219 C269.006429,27.4484708 275.221224,29.5957052 270.549328,23.1369154" id="Path-94" stroke="#1F430B" fill-opacity="0.5" fill="#34632B"></path>
            <path d="M274.061869,22.3831918 C273.07239,17.3656543 276.416425,18.0795192 274.177923,21.8987904" id="Path-95" stroke="#1F430B" fill-opacity="0.5" fill="#34632B"></path>
            <path d="M278.424005,24.1902363 C277.509942,30.2168027 280.848649,29.0024466 278.781629,24.5156935" id="Path-96" stroke="#1F430B" fill-opacity="0.5" fill="#34632B"></path>
            <path d="M282.771003,24.7282498 C282.456056,20.8989748 287.454344,21.1002171 283.158272,24.7181581" id="Path-97" stroke="#1F430B" fill-opacity="0.5" fill="#34632B"></path>
            <path d="M285.729762,27.4858059 C284.273949,31.0476412 283.927756,30.9516253 286.421043,28.3126943" id="Path-98" stroke="#1F430B" fill-opacity="0.5" fill="#34632B"></path>
            <path d="M289.524871,28.5126361 C294.946454,27.0500776 294.873716,29.7803932 290.665863,28.8141255" id="Path-99" stroke="#1F430B" fill-opacity="0.5" fill="#34632B"></path>
            <path d="M291.219014,32.7341189 C287.194722,33.8685711 290.72997,37.5382727 291.613221,32.9826269" id="Path-100" stroke="#1F430B" fill-opacity="0.5" fill="#34632B"></path>
            <path d="M293.638499,34.7284904 C294.765189,32.3639997 296.752491,32.5425132 295.376793,35.7382908" id="Path-101" stroke="#1F430B" fill-opacity="0.5" fill="#34632B"></path>
            <path d="M295.131439,39.8462421 C288.690079,40.8654885 292.963885,41.8522195 295.079719,40.2505407" id="Path-102" stroke="#1F430B" fill-opacity="0.5" fill="#34632B"></path>
            <path d="M297.590659,41.9762208 C300.584249,39.6577813 303.159112,43.9766632 296.33992,41.8399829" id="Path-103" stroke="#1F430B" fill-opacity="0.5" fill="#34632B"></path>
            <path d="M297.447483,46.9558423 C292.819046,43.6639588 293.008037,53.2279182 297.587506,46.5187457" id="Path-104" stroke="#1F430B" fill-opacity="0.5" fill="#34632B"></path>
            <path d="M298.944839,50.0047961 C305.117849,48.1957015 303.737427,52.3417946 299.475284,49.8912645" id="Path-105" stroke="#1F430B" fill-opacity="0.5" fill="#34632B"></path>
            <path d="M297.33269,54.7523086 C294.288187,53.3684433 294.696293,56.2832208 296.503279,55.2266184" id="Path-106" stroke="#1F430B" fill-opacity="0.5" fill="#34632B"></path>
            <path d="M298.778326,58.0649081 C303.885523,56.0856555 302.43014,60.1444647 299.363644,58.7170839" id="Path-107" stroke="#1F430B" fill-opacity="0.5" fill="#34632B"></path>
            <path d="M297.353892,62.7450369 C294.970295,60.1808943 291.627931,65.0588729 297.142333,63.2781277" id="Path-108" stroke="#1F430B" fill-opacity="0.5" fill="#34632B"></path>
            <path d="M299.110971,65.6190914 C304.189043,64.1339051 304.58869,67.0400959 300.055839,65.7872542" id="Path-109" stroke="#1F430B" fill-opacity="0.5" fill="#34632B"></path>
            <path d="M297.751368,69.5726424 C289.61643,69.9428078 293.139077,72.534656 297.739039,69.9587757" id="Path-110" stroke="#1F430B" fill-opacity="0.5" fill="#34632B"></path>
            <path d="M299.462091,73.602631 C302.36166,71.3730539 307.210959,73.154434 299.431516,73.7944648 L299.462091,73.602631 Z" id="Path-111" stroke="#1F430B" fill-opacity="0.5" fill="#34632B"></path>
            <path d="M299.038972,77.5877433 C295.87377,77.8841938 297.106275,80.6951945 299.035027,78.123793" id="Path-112" stroke="#1F430B" fill-opacity="0.5" fill="#34632B"></path>
            <path d="M301.952478,81.2942282 C304.913968,77.7110952 305.31263,81.360114 303.058604,81.8327436" id="Path-113" stroke="#1F430B" fill-opacity="0.5" fill="#34632B"></path>
            <path d="M303.527586,86.4426718 C299.636647,87.9081043 302.938749,91.6601742 303.871309,86.9984473" id="Path-114" stroke="#1F430B" fill-opacity="0.5" fill="#34632B"></path>
            <path d="M307.377083,87.9541641 C310.542353,83.6118862 311.967231,87.224119 307.290783,88.2658323" id="Path-115" stroke="#1F430B" fill-opacity="0.5" fill="#34632B"></path>
            <path d="M309.240682,91.738566 C306.209936,95.560322 309.008672,96.4194731 309.490707,92.7238716" id="Path-116" stroke="#1F430B" fill-opacity="0.5" fill="#34632B"></path>
            <path d="M312.711936,93.0626629 C315.342525,90.1725166 315.726907,92.1295251 313.401847,93.3886323" id="Path-117" stroke="#1F430B" fill-opacity="0.5" fill="#34632B"></path>
            <path d="M315.180625,96.6443818 C311.645387,98.0540485 313.572548,100.286809 314.891148,97.2401021" id="Path-118" stroke="#1F430B" fill-opacity="0.5" fill="#34632B"></path>
            <path d="M317.523561,96.7878873 C318.402001,93.3205705 323.686625,94.8900239 316.572283,97.3643749" id="Path-119" stroke="#1F430B" fill-opacity="0.5" fill="#34632B"></path>
            <path d="M319.000533,99.8148171 C317.980755,102.410572 319.031908,105.688 319.724965,100.864725" id="Path-120" stroke="#1F430B" fill-opacity="0.5" fill="#34632B"></path>
            <path d="M322.892934,101.079736 C325.067121,95.5720716 326.802559,99.4340401 323.604051,101.068394" id="Path-121" stroke="#1F430B" fill-opacity="0.5" fill="#34632B"></path>
            <path d="M325.222062,104.714222 C321.744425,108.502244 325.341278,108.248027 325.471101,105.432736" id="Path-122" stroke="#1F430B" fill-opacity="0.5" fill="#34632B"></path>
            <path d="M329.064162,105.478598 C331.546193,103.865545 333.761271,106.32792 328.61392,106.308563" id="Path-123" stroke="#1F430B" fill-opacity="0.5" fill="#34632B"></path>
            <path d="M331.867697,109.968199 C327.689276,111.448322 331.571712,115.348567 332.869276,110.906655" id="Path-124" stroke="#1F430B" fill-opacity="0.5" fill="#34632B"></path>
            <path d="M335.391225,111.794318 C338.994006,108.263153 338.747119,111.09749 336.414503,112.260341" id="Path-125" stroke="#1F430B" fill-opacity="0.5" fill="#34632B"></path>
            <path d="M336.778937,115.275929 C332.969134,116.124441 335.192742,119.418073 337.423479,116.397342" id="Path-126" stroke="#1F430B" fill-opacity="0.5" fill="#34632B"></path>
            <path d="M339.966633,116.56156 C342.885085,113.562809 344.979814,116.295841 340.549531,116.829338" id="Path-127" stroke="#1F430B" fill-opacity="0.5" fill="#34632B"></path>
            <path d="M340.788707,120.803108 C336.840184,120.121522 336.229134,124.141131 340.567285,120.913573 L340.788707,120.803108 Z" id="Path-128" stroke="#1F430B" fill-opacity="0.5" fill="#34632B"></path>
            <path d="M343.320025,122.04485 C348.134629,118.866341 348.207916,122.361136 345.088446,121.738606" id="Path-129" stroke="#1F430B" fill-opacity="0.5" fill="#34632B"></path>
            <path d="M343.24556,126.778064 C337.833383,124.428383 339.746415,130.670962 343.307696,127.265786" id="Path-130" stroke="#1F430B" fill-opacity="0.5" fill="#34632B"></path>
            <path d="M344.977489,129.219137 C347.96341,129.098975 349.039023,131.431375 345.847891,130.662575" id="Path-131" stroke="#1F430B" fill-opacity="0.5" fill="#34632B"></path>
            <path d="M343.045343,134.161445 C339.216112,130.054062 339.132993,133.879719 341.415496,134.753714" id="Path-132" stroke="#1F430B" fill-opacity="0.5" fill="#34632B"></path>
            <path d="M343.665227,138.29894 C347.629478,142.277321 348.237764,138.29958 344.412343,138.73636" id="Path-133" stroke="#1F430B" fill-opacity="0.5" fill="#34632B"></path>
            <path d="M340.97265,141.512279 C335.438103,137.283797 335.120933,141.713065 341.151662,141.72877 L340.97265,141.512279 Z" id="Path-134" stroke="#1F430B" fill-opacity="0.5" fill="#34632B"></path>
            <path d="M340.622517,146.472834 C345.943754,144.601371 345.466021,150.875697 341.627055,147.152389" id="Path-135" stroke="#1F430B" fill-opacity="0.5" fill="#34632B"></path>
            <path d="M337.656244,149.802062 C334.580607,146.528296 334.036728,150.590884 338.902917,149.784802" id="Path-136" stroke="#1F430B" fill-opacity="0.5" fill="#34632B"></path>
            <path d="M336.727157,154.920424 C341.876565,154.366292 339.601582,158.686512 337.205016,154.90415" id="Path-137" stroke="#1F430B" fill-opacity="0.5" fill="#34632B"></path>
            <path d="M333.797377,156.801775 C332.690241,152.279148 330.319543,155.55522 333.279081,156.623257" id="Path-138" stroke="#1F430B" fill-opacity="0.5" fill="#34632B"></path>
            <path d="M333.857048,159.999827 C341.046012,159.439584 337.569404,163.922607 334.748162,160.019553" id="Path-139" stroke="#1F430B" fill-opacity="0.5" fill="#34632B"></path>
            <path d="M331.35236,161.568524 C330.368407,157.585592 325.963574,160.659984 330.565299,162.0523" id="Path-140" stroke="#1F430B" fill-opacity="0.5" fill="#34632B"></path>
            <path d="M330.934665,165.595061 C334.467351,165.311663 334.234773,169.034105 330.284205,166.143932" id="Path-141" stroke="#1F430B" fill-opacity="0.5" fill="#34632B"></path>
            <path d="M326.923909,169.366148 C324.042002,165.574794 320.783309,170.183477 326.873115,169.512119 L326.923909,169.366148 Z" id="Path-142" stroke="#1F430B" fill-opacity="0.5" fill="#34632B"></path>
            <path d="M325.955864,174.112184 C330.680028,171.886306 330.220831,177.004191 325.855755,174.559961" id="Path-143" stroke="#1F430B" fill-opacity="0.5" fill="#34632B"></path>
            <path d="M323.360436,177.374838 C321.036254,174.526093 318.583664,179.13478 323.290903,178.116529" id="Path-144" stroke="#1F430B" fill-opacity="0.5" fill="#34632B"></path>
            <path d="M323.272656,181.342197 C327.139069,180.470812 325.702919,184.377731 322.74647,181.482743" id="Path-145" stroke="#1F430B" fill-opacity="0.5" fill="#34632B"></path>
            <path d="M321.21969,184.792246 C317.949702,182.722299 316.762443,185.773286 320.927254,184.888902" id="Path-146" stroke="#1F430B" fill-opacity="0.5" fill="#34632B"></path>
            <path d="M321.584618,188.707331 C327.440542,187.078751 325.275578,189.90588 321.945108,188.857248" id="Path-147" stroke="#1F430B" fill-opacity="0.5" fill="#34632B"></path>
            <path d="M320.056852,193.036659 C317.463398,189.775098 312.95081,193.51897 319.546939,193.407998" id="Path-148" stroke="#1F430B" fill-opacity="0.5" fill="#34632B"></path>
            <path d="M321.345442,196.078877 C330.392093,193.760611 326.710275,197.029225 322.240009,196.081342" id="Path-149" stroke="#1F430B" fill-opacity="0.5" fill="#34632B"></path>
            <path d="M320.322657,200.273083 C314.911095,199.849318 314.260628,203.669063 319.9814,200.577847" id="Path-150" stroke="#1F430B" fill-opacity="0.5" fill="#34632B"></path>
            <path d="M322.388939,202.892181 C327.405559,200.574532 327.648785,203.479035 322.894907,202.938537" id="Path-151" stroke="#1F430B" fill-opacity="0.5" fill="#34632B"></path>
            <path d="M322.478198,206.777678 C317.852356,207.830362 320.720457,209.163935 322.136941,207.628355" id="Path-152" stroke="#1F430B" fill-opacity="0.5" fill="#34632B"></path>
            <path d="M324.857134,209.294202 C328.149456,206.467026 327.385925,209.481854 324.667273,209.430803" id="Path-153" stroke="#1F430B" fill-opacity="0.5" fill="#34632B"></path>
            <path d="M325.302938,213.354272 C320.139878,213.556164 324.037974,216.538057 324.938503,213.517997" id="Path-154" stroke="#1F430B" fill-opacity="0.5" fill="#34632B"></path>
            <path d="M327.77212,215.029489 C329.34966,210.139755 332.121201,216.637758 328.826466,214.468289" id="Path-155" stroke="#1F430B" fill-opacity="0.5" fill="#34632B"></path>
            <path d="M329.067614,219.548185 C323.893455,220.898387 327.059358,223.196173 328.793918,220.173001" id="Path-156" stroke="#1F430B" fill-opacity="0.5" fill="#34632B"></path>
            <path d="M331.874108,220.739132 C333.560435,216.670631 335.814138,220.626751 332.483143,220.722366" id="Path-157" stroke="#1F430B" fill-opacity="0.5" fill="#34632B"></path>
            <path d="M332.991083,224.954544 C329.026528,227.589835 331.615348,228.421821 332.997001,225.758865" id="Path-158" stroke="#1F430B" fill-opacity="0.5" fill="#34632B"></path>
            <path d="M335.857741,226.122807 C338.562604,221.706469 339.385925,225.498744 336.068807,225.673551" id="Path-159" stroke="#1F430B" fill-opacity="0.5" fill="#34632B"></path>
            <path d="M336.363215,230.24452 C331.64221,229.908209 334.500206,234.840447 335.979055,230.21937" id="Path-160" stroke="#1F430B" fill-opacity="0.5" fill="#34632B"></path>
            <path d="M338.414703,230.584298 C340.099561,225.28554 341.860254,230.558377 338.922643,230.077837" id="Path-161" stroke="#1F430B" fill-opacity="0.5" fill="#34632B"></path>
            <path d="M338.826479,234.985132 C334.316188,234.861317 337.259237,238.821819 338.52566,235.073405" id="Path-162" stroke="#1F430B" fill-opacity="0.5" fill="#34632B"></path>
            <path d="M340.865145,236.410324 C343.994053,235.232519 343.838961,237.905915 341.256209,237.057825" id="Path-163" stroke="#1F430B" fill-opacity="0.5" fill="#34632B"></path>
            <path d="M340.714242,241.028636 C336.238277,240.583458 339.007233,243.576003 340.506134,241.496138" id="Path-164" stroke="#1F430B" fill-opacity="0.5" fill="#34632B"></path>
            <path d="M342.449129,243.281326 C345.978362,241.462256 347.435929,246.351384 342.664634,243.199957" id="Path-165" stroke="#1F430B" fill-opacity="0.5" fill="#34632B"></path>
            <path d="M341.277908,246.950825 C336.296614,245.407716 337.960895,248.32779 340.744324,247.315753" id="Path-166" stroke="#1F430B" fill-opacity="0.5" fill="#34632B"></path>
            <path d="M342.907755,249.234584 C346.267653,247.966082 346.049763,250.643271 343.272683,249.55217" id="Path-167" stroke="#1F430B" fill-opacity="0.5" fill="#34632B"></path>
            <path d="M341.237963,252.192967 C336.866369,249.470139 337.837982,252.687728 340.73742,251.76393" id="Path-168" stroke="#1F430B" fill-opacity="0.5" fill="#34632B"></path>
            <path d="M342.144365,253.421886 C343.338541,258.530759 348.689098,255.968933 342.425458,254.005771" id="Path-169" stroke="#1F430B" fill-opacity="0.5" fill="#34632B"></path>
        </g>
    </g>
</svg>