<?xml version="1.0" encoding="UTF-8"?>
<svg width="348px" height="274px" viewBox="0 0 348 274" version="1.1" xmlns="http://www.w3.org/2000/svg" xmlns:xlink="http://www.w3.org/1999/xlink">
    <title>doorway</title>
    <g id="Page-1" stroke="none" stroke-width="1" fill="none" fill-rule="evenodd">
        <g id="doorway_open_transparent">
            <path d="M121.50915,252.499807 C123.31777,197.16583 114.24172,137.450659 133.770955,83.8999887 C139.978109,66.8794948 152.974783,45.5505172 167.251677,33.7117688 C175.572108,26.8122645 185.539689,22.1628113 194.990593,16.9175128 C197.947226,15.2765669 203.905393,9.75349798 204.389382,13.1001584 C208.510053,41.593521 205.479181,70.6787918 206.923769,99.4323094 C209.576874,152.240498 222.231113,224.115186 215.184188,271.846853 C214.135791,278.948069 201.857574,266.458671 194.993222,264.35937 C184.857087,261.259472 174.580851,258.60111 164.241436,256.26721 C157.901093,254.836015 151.469335,253.752451 145.004809,253.075565 C138.824356,252.428424 132.587015,252.560275 126.378118,252.30263 L121.50915,252.499807 Z" id="Path" stroke="#594232"></path>
            <path d="M221.633203,10.3344168 C219.729687,55.6522929 223.369932,100.710425 226.249783,145.918091 C228.181083,176.235472 228.432985,206.642277 230.395767,236.957693 C231.06077,247.228759 224.315202,264.10087 234.128992,267.613489 C255.202813,275.156376 278.908698,264.899491 301.171936,262.290385 C312.627699,260.947844 323.996949,258.703736 335.144286,255.775153 C336.058618,255.534944 333.126998,254.850949 333.01477,253.924765 C332.211598,247.296373 333.40786,240.519289 332.494222,233.904812 C329.471187,212.01891 324.536768,190.424299 321.226191,168.578863 C312.81213,113.057166 308.589703,97.7391529 280.131793,43.159365 C278.33103,39.7056597 269.454687,26.1694547 263.24815,22.0068916 C252.074463,14.5129911 241.680948,15.0826723 227.369751,12.2418194 L221.633203,10.3344168 Z" id="Path-2" stroke="#594232"></path>
            <path d="M121.127941,254.400597 C121.939035,188.569923 109.76092,71.9273158 171.99708,27.5046244 C180.737515,21.2659095 190.283866,16.2260449 199.680786,11.0284812 C201.086208,10.2511236 204.183832,8.03810568 204.294737,9.64035235 C206.133865,36.2102748 204.28856,62.9159615 205.114995,89.5366332 C205.635962,106.317726 207.68458,123.024543 208.335559,139.801095 C209.972127,181.977516 222.112639,225.400133 211.976769,266.373209 C209.260769,277.352323 190.119407,260.448552 178.995563,258.404613 C161.670728,255.221279 144.14161,253.272743 126.714634,250.706808" id="Path-170" fill-opacity="0.5" fill="#5A3A28"></path>
            <path d="M220.970687,11.6463037 C221.592015,30.5849735 221.701814,49.5473477 222.834671,68.4623131 C226.819318,134.992746 219.035248,203.586966 236.321605,267.955886 C239.710686,280.575754 262.365182,265.655385 275.307519,263.854596 C292.987533,261.39461 317.560166,269.547762 328.151061,255.178791 C340.546752,238.361202 329.724619,213.314935 327.898674,192.502669 C322.938904,135.970799 300.634116,14.7446694 226.341799,7.80791708 L220.970687,11.6463037 Z" id="Path-9" fill-opacity="0.5" fill="#5A3A28"></path>
            <path d="M196.40625,151.707031 C189.999273,147.857012 193.835374,158.493774 196.609375,152.15625" id="Path-5" stroke="#252322" fill-opacity="0.5" fill="#252322"></path>
            <path d="M242.472656,149.546875 C235.893873,152.786427 243.192169,154.590007 243.183601,149.496094" id="Path-6" stroke="#252322" fill-opacity="0.5" fill="#252322"></path>
            <path d="M-0.015625,253.828125 C19.7323804,240.837961 26.6681271,249.714488 48.7734375,256.269531 C70.8439912,262.814267 106.101769,259.686806 124.429688,244.53125 C159.475883,215.551168 122.378516,155.299142 114.554688,126.644531 C113.197877,121.67524 113.981906,116.215913 115.167969,111.203125 C117.986963,99.2889008 121.741275,87.5481853 126.476563,76.2578125 C134.177097,57.8973874 157.512932,54.4106196 168.625,39.5078125 C178.177543,26.6965419 186.148639,7.30252217 204.679687,4.53125 C222.665744,1.84148003 227.518905,19.1914275 246.171875,21.03125" id="Path-7" stroke="#2F6610"></path>
            <path d="M245.175781,21.4023438 C267.093966,22.3748229 290.2072,16.6031941 297.246094,46.5117188 C298.084387,50.0736593 295.241906,73.7453265 300.792969,82.015625 C311.539164,98.0259355 343.100393,111.255895 343.335938,128.414063 C343.679247,153.422376 315.520352,172.857874 320.4375,199.738281 C324.553723,222.240301 343.724843,226.651245 340.980469,253.058594" id="Path-8" stroke="#2F6610"></path>
            <path d="M11.5226297,248.336569 C6.09094794,246.746432 10.5474753,236.402353 11.5096357,249.437513" id="Path-11" stroke="#1F430B" fill-opacity="0.5" fill="#34632B"></path>
            <path d="M19.6143304,248.056608 C18.1613234,250.353154 16.8660781,258.819272 20.3490805,248.90476" id="Path-12" stroke="#1F430B" fill-opacity="0.5" fill="#34632B"></path>
            <path d="M27.9103909,249.040606 C25.8677159,244.174101 30.9867467,239.485179 27.7603696,249.657229" id="Path-13" stroke="#1F430B" fill-opacity="0.5" fill="#34632B"></path>
            <path d="M34.1782105,252.342256 C30.1796848,255.178711 35.5117949,259.978825 35.505963,253.170327" id="Path-14" stroke="#1F430B" fill-opacity="0.5" fill="#34632B"></path>
            <path d="M45.2124552,254.671721 C44.8126212,246.967703 46.8779784,251.027649 45.7357579,254.402392" id="Path-15" stroke="#1F430B" fill-opacity="0.5" fill="#34632B"></path>
            <path d="M53.5723043,258.858143 C51.9747998,267.271338 55.9345556,269.834391 53.697519,259.532648" id="Path-16" stroke="#1F430B" fill-opacity="0.5" fill="#34632B"></path>
            <path d="M62.4424621,258.841605 C59.4557092,254.040456 61.5732634,251.677716 61.6805428,258.186" id="Path-17" stroke="#1F430B" fill-opacity="0.5" fill="#34632B"></path>
            <path d="M69.1898774,260.393794 C68.9789212,264.079095 72.4971523,268.152933 69.3032793,260.685568" id="Path-18" stroke="#1F430B" fill-opacity="0.5" fill="#34632B"></path>
            <path d="M76.5279278,259.566905 C71.9140279,254.654088 79.3153748,254.287828 76.3436496,259.894117" id="Path-19" stroke="#1F430B" fill-opacity="0.5" fill="#34632B"></path>
            <path d="M83.4230018,260.722187 C83.9221098,266.572413 89.5531385,267.429061 84.4637008,261.086018" id="Path-20" stroke="#1F430B" fill-opacity="0.5" fill="#34632B"></path>
            <path d="M90.3865895,258.187181 C86.3969993,255.755613 90.6433648,249.208057 89.9010875,260.080757" id="Path-21" stroke="#1F430B" fill-opacity="0.5" fill="#34632B"></path>
            <path d="M95.7353809,258.421073 C96.7417592,265.17522 101.020032,262.16111 96.5894393,257.74893" id="Path-22" stroke="#1F430B" fill-opacity="0.5" fill="#34632B"></path>
            <path d="M103.726674,255.294251 C98.320361,252.703281 99.4680032,246.673243 101.520061,254.228745" id="Path-23" stroke="#1F430B" fill-opacity="0.5" fill="#34632B"></path>
            <path d="M108.964426,254.083449 C110.756325,258.17353 116.333417,258.534303 110.209484,254.844187" id="Path-24" stroke="#1F430B" fill-opacity="0.5" fill="#34632B"></path>
            <path d="M115.700028,249.961997 C111.302953,248.059729 114.350416,245.643205 115.051511,249.849776" id="Path-25" stroke="#1F430B" fill-opacity="0.5" fill="#34632B"></path>
            <path d="M121.113789,247.735303 C122.486981,252.548877 129.744974,248.762492 120.934236,247.554568" id="Path-26" stroke="#1F430B" fill-opacity="0.5" fill="#34632B"></path>
            <path d="M126.1271,242.140807 C121.401427,241.434283 125.948347,236.463028 125.941641,241.899828 L126.1271,242.140807 Z" id="Path-27" stroke="#1F430B" fill-opacity="0.5" fill="#34632B"></path>
            <path d="M130.809655,238.571009 C134.315932,243.352296 138.596243,236.449677 130.8888,238.315854" id="Path-28" stroke="#1F430B" fill-opacity="0.5" fill="#34632B"></path>
            <path d="M134.290858,231.408968 C135.116764,225.340633 123.90558,232.022226 136.190341,230.449776" id="Path-29" stroke="#1F430B" fill-opacity="0.5" fill="#34632B"></path>
            <path d="M137.446031,225.670357 C144.016289,220.699756 141.377691,226.332872 138.211494,225.92433" id="Path-30" stroke="#1F430B" fill-opacity="0.5" fill="#34632B"></path>
            <path d="M138.113449,217.056535 C132.092008,214.808705 131.142423,218.871649 137.959884,216.797837" id="Path-31" stroke="#1F430B" fill-opacity="0.5" fill="#34632B"></path>
            <path d="M138.628482,212.099925 C141.515419,207.427116 146.087114,210.967391 138.834023,211.336825" id="Path-32" stroke="#1F430B" fill-opacity="0.5" fill="#34632B"></path>
            <path d="M138.724165,203.860566 C134.901668,201.63443 132.495996,207.163451 138.050841,203.636124" id="Path-33" stroke="#1F430B" fill-opacity="0.5" fill="#34632B"></path>
            <path d="M138.461923,198.863793 C142.996802,191.528918 143.805687,205.58298 139.525067,198.966563" id="Path-34" stroke="#1F430B" fill-opacity="0.5" fill="#34632B"></path>
            <path d="M135.443778,192.001794 C130.937904,186.643848 130.693387,197.608171 134.95237,191.922649" id="Path-35" stroke="#1F430B" fill-opacity="0.5" fill="#34632B"></path>
            <path d="M135.590256,185.497721 C140.871669,178.078095 138.43234,189.083557 135.616244,184.082559" id="Path-36" stroke="#1F430B" fill-opacity="0.5" fill="#34632B"></path>
            <path d="M131.823185,177.747407 C124.953972,175.651715 128.410735,185.287403 131.829091,178.151401" id="Path-37" stroke="#1F430B" fill-opacity="0.5" fill="#34632B"></path>
            <path d="M131.224281,172.074948 C134.338118,167.700524 135.268189,171.385453 131.407378,171.700485" id="Path-38" stroke="#1F430B" fill-opacity="0.5" fill="#34632B"></path>
            <path d="M128.118722,165.765784 C124.374863,163.268823 123.403178,172.454583 127.30837,165.566149" id="Path-39" stroke="#1F430B" fill-opacity="0.5" fill="#34632B"></path>
            <path d="M126.802787,159.082157 C128.408393,153.96723 133.140433,159.674332 126.507469,158.788021" id="Path-40" stroke="#1F430B" fill-opacity="0.5" fill="#34632B"></path>
            <path d="M124.004358,155.26311 C116.326487,154.593296 123.440321,160.100126 123.432623,155.543071" id="Path-41" stroke="#1F430B" fill-opacity="0.5" fill="#34632B"></path>
            <path d="M123.83898,149.878881 C126.099999,146.374393 129.317334,150.605301 123.489324,150.454159" id="Path-42" stroke="#1F430B" fill-opacity="0.5" fill="#34632B"></path>
            <path d="M120.167592,145.335716 C112.561172,143.266499 117.271642,149.194603 118.611859,145.404229" id="Path-43" stroke="#1F430B" fill-opacity="0.5" fill="#34632B"></path>
            <path d="M119.061923,139.248631 C121.3425,134.922114 125.668052,140.790923 119.052473,138.744228" id="Path-44" stroke="#1F430B" fill-opacity="0.5" fill="#34632B"></path>
            <path d="M115.964633,134.545994 C111.155897,126.351194 112.270466,140.428749 115.234608,134.032141" id="Path-45" stroke="#1F430B" fill-opacity="0.5" fill="#34632B"></path>
            <path d="M114.698311,128.19076 C117.968212,123.57443 119.87847,127.699882 115.378723,127.39104" id="Path-46" stroke="#1F430B" fill-opacity="0.5" fill="#34632B"></path>
            <path d="M113.136166,120.862161 C109.748791,119.112188 106.140541,122.419678 114.209886,121.639821" id="Path-47" stroke="#1F430B" fill-opacity="0.5" fill="#34632B"></path>
            <path d="M114.148577,115.632314 C120.848405,114.981628 117.493004,117.664646 115.742619,115.741219" id="Path-48" stroke="#1F430B" fill-opacity="0.5" fill="#34632B"></path>
            <path d="M114.83266,109.576405 C110.427259,104.942393 110.032621,109.278734 115.845877,109.022201" id="Path-49" stroke="#1F430B" fill-opacity="0.5" fill="#34632B"></path>
            <path d="M117.319721,102.753322 C120.52343,99.3773707 119.629679,108.761671 116.996233,104.435295" id="Path-50" stroke="#1F430B" fill-opacity="0.5" fill="#34632B"></path>
            <path d="M119.147707,95.1904945 C114.439823,92.9525169 115.515766,96.5599542 118.569302,95.4801004" id="Path-51" stroke="#1F430B" fill-opacity="0.5" fill="#34632B"></path>
            <path d="M122.733495,88.2351129 C127.029193,88.5338434 126.220751,91.2643788 122.927911,88.7401082" id="Path-52" stroke="#1F430B" fill-opacity="0.5" fill="#34632B"></path>
            <path d="M123.120712,83.2392096 C121.780674,76.0396161 118.772656,81.0643636 123.298187,82.5648071" id="Path-53" stroke="#1F430B" fill-opacity="0.5" fill="#34632B"></path>
            <path d="M126.478204,77.243803 C132.151988,76.6331929 129.634282,81.7884982 126.095828,77.9867752" id="Path-54" stroke="#1F430B" fill-opacity="0.5" fill="#34632B"></path>
            <path d="M128.095641,72.2261187 C127.587688,66.9126173 125.58953,71.2163352 127.929461,72.1623893 L128.095641,72.2261187 Z" id="Path-55" stroke="#1F430B" fill-opacity="0.5" fill="#34632B"></path>
            <path d="M131.796788,68.1119403 C135.295046,69.7062195 136.12229,73.2863128 132.30017,69.5502894" id="Path-56" stroke="#1F430B" fill-opacity="0.5" fill="#34632B"></path>
            <path d="M136.155397,62.7739955 C134.674528,56.8834551 132.732101,61.1261825 136.429676,63.5201946" id="Path-57" stroke="#1F430B" fill-opacity="0.5" fill="#34632B"></path>
            <path d="M140.505133,61.5195745 C141.923598,64.2997657 145.285773,66.0393309 140.651146,60.8459786" id="Path-58" stroke="#1F430B" fill-opacity="0.5" fill="#34632B"></path>
            <path d="M144.783072,56.7931095 C135.43361,55.9352227 144.676365,46.7398175 143.406032,55.7992531" id="Path-59" stroke="#1F430B" fill-opacity="0.5" fill="#34632B"></path>
            <path d="M150.434017,55.5467555 C151.256833,60.7571185 153.832897,58.6954569 150.50178,55.9759207" id="Path-60" stroke="#1F430B" fill-opacity="0.5" fill="#34632B"></path>
            <path d="M154.732123,50.9751772 C150.154674,49.9473478 154.283027,45.5211259 154.867649,50.5928006" id="Path-61" stroke="#1F430B" fill-opacity="0.5" fill="#34632B"></path>
            <path d="M159.660263,48.8882401 C159.802855,52.5757292 163.677806,52.6381066 159.833704,49.0632943" id="Path-62" stroke="#1F430B" fill-opacity="0.5" fill="#34632B"></path>
            <path d="M161.95533,45.5912504 C159.132046,43.6515035 161.72801,42.747266 161.873046,45.9663667" id="Path-63" stroke="#1F430B" fill-opacity="0.5" fill="#34632B"></path>
            <path d="M165.623402,43.6406458 C166.800093,48.0009782 169.489804,46.5432 166.463178,43.6616201" id="Path-64" stroke="#1F430B" fill-opacity="0.5" fill="#34632B"></path>
            <path d="M167.566746,38.7044385 C166.519072,33.9789032 163.688058,39.0968833 167.478009,39.1457043" id="Path-65" stroke="#1F430B" fill-opacity="0.5" fill="#34632B"></path>
            <path d="M171.679311,37.2547956 C172.030307,42.0111726 176.174994,39.5105101 172.405343,37.2088136" id="Path-66" stroke="#1F430B" fill-opacity="0.5" fill="#34632B"></path>
            <path d="M172.074595,32.0467298 C170.411546,27.5791572 166.404609,32.2548965 174.404349,32.4040986" id="Path-67" stroke="#1F430B" fill-opacity="0.5" fill="#34632B"></path>
            <path d="M176.605031,29.3241117 C177.289162,32.109302 181.134605,34.0572774 176.767179,29.0877481" id="Path-68" stroke="#1F430B" fill-opacity="0.5" fill="#34632B"></path>
            <path d="M177.974811,23.8070791 C172.753475,18.6722217 174.302977,23.8182796 178.978348,24.7936753" id="Path-69" stroke="#1F430B" fill-opacity="0.5" fill="#34632B"></path>
            <path d="M181.810677,20.4584606 C184.442901,25.7946342 185.155136,21.8516861 181.584801,19.7929317" id="Path-70" stroke="#1F430B" fill-opacity="0.5" fill="#34632B"></path>
            <path d="M185.669938,15.2568484 C185.245565,9.38800715 180.859778,12.6562195 185.079432,15.1350364" id="Path-71" stroke="#1F430B" fill-opacity="0.5" fill="#34632B"></path>
            <path d="M189.936583,11.7646369 C189.979886,16.4353386 192.641924,14.9937752 189.870433,12.21881" id="Path-72" stroke="#1F430B" fill-opacity="0.5" fill="#34632B"></path>
            <path d="M193.610302,8.15464706 L193.610302,8.15464706 Z" id="Path-73" stroke="#1F430B" fill-opacity="0.5" fill="#34632B"></path>
            <path d="M193.414274,9.00894411 C190.267163,6.1070943 192.502704,5.62534919 193.203725,8.74111916" id="Path-74" stroke="#1F430B" fill-opacity="0.5" fill="#34632B"></path>
            <path d="M198.068136,7.00751732 C197.169972,12.0700028 200.279609,11.6462978 198.778033,7.56252805" id="Path-75" stroke="#1F430B" fill-opacity="0.5" fill="#34632B"></path>
            <path d="M201.861247,4.95688173 C198.562021,-0.22072485 203.69832,0.62330683 202.075023,4.11387851" id="Path-76" stroke="#1F430B" fill-opacity="0.5" fill="#34632B"></path>
            <path d="M206.261804,5.29650313 C204.09913,8.4936559 207.744095,9.96670866 206.394103,5.78133082" id="Path-77" stroke="#1F430B" fill-opacity="0.5" fill="#34632B"></path>
            <path d="M210.395343,3.99690677 C211.32256,0.617948152 216.35344,1.92623383 210.751906,3.92995054" id="Path-78" stroke="#1F430B" fill-opacity="0.5" fill="#34632B"></path>
            <path d="M214.942721,6.62352734 C213.038438,8.00372224 213.201631,13.2366615 215.592115,6.97444255" id="Path-79" stroke="#1F430B" fill-opacity="0.5" fill="#34632B"></path>
            <path d="M219.263415,6.9486281 C223.067023,3.62788071 223.247295,6.20634238 220.256464,6.98170287" id="Path-80" stroke="#1F430B" fill-opacity="0.5" fill="#34632B"></path>
            <path d="M223.861614,11.2693221 C221.770524,12.4053369 221.014773,18.3870516 223.351779,12.2018692" id="Path-81" stroke="#1F430B" fill-opacity="0.5" fill="#34632B"></path>
            <path d="M227.788638,12.9383878 C227.116616,7.91193015 230.594033,9.69337192 228.30654,12.5794056" id="Path-82" stroke="#1F430B" fill-opacity="0.5" fill="#34632B"></path>
            <path d="M230.480601,16.0345088 C228.183297,20.2811053 231.3517,22.1942205 230.30232,16.085331" id="Path-83" stroke="#1F430B" fill-opacity="0.5" fill="#34632B"></path>
            <path d="M235.420035,17.9149303 C231.733982,13.1279208 238.406926,12.9764769 235.461984,17.6245177" id="Path-84" stroke="#1F430B" fill-opacity="0.5" fill="#34632B"></path>
            <path d="M237.957112,19.9268442 C235.449581,22.110626 240.743982,28.0275259 237.502939,19.5089728" id="Path-85" stroke="#1F430B" fill-opacity="0.5" fill="#34632B"></path>
            <path d="M241.558228,20.1535274 C242.20692,16.5340156 245.320603,17.8317447 241.68972,19.846174" id="Path-86" stroke="#1F430B" fill-opacity="0.5" fill="#34632B"></path>
            <path d="M245.421522,21.912137 C244.993064,25.363374 246.853027,28.4612074 246.005574,22.4348796" id="Path-87" stroke="#1F430B" fill-opacity="0.5" fill="#34632B"></path>
            <path d="M249.257389,22.1081655 C249.326139,18.3649495 253.322539,17.4266277 250.145567,21.5652553" id="Path-88" stroke="#1F430B" fill-opacity="0.5" fill="#34632B"></path>
            <path d="M253.770884,21.9952272 C252.670565,26.8590814 254.672637,25.6947896 253.991114,22.420359" id="Path-89" stroke="#1F430B" fill-opacity="0.5" fill="#34632B"></path>
            <path d="M257.084008,21.5733223 L257.084008,21.5733223 Z" id="Path-90" stroke="#1F430B" fill-opacity="0.5" fill="#34632B"></path>
            <path d="M257.668867,21.0118579 C256.002818,16.6280452 258.582759,17.4711807 257.914104,21.544281" id="Path-91" stroke="#1F430B" fill-opacity="0.5" fill="#34632B"></path>
            <path d="M262.688971,22.3566296 C260.602356,26.1364059 262.911309,28.5890079 262.693005,23.3601664" id="Path-92" stroke="#1F430B" fill-opacity="0.5" fill="#34632B"></path>
            <path d="M265.98822,21.1665117 C264.719599,17.3949088 271.675648,17.6559837 265.656456,21.3929441" id="Path-93" stroke="#1F430B" fill-opacity="0.5" fill="#34632B"></path>
            <path d="M269.336771,23.0303219 C268.006429,27.4484708 274.221224,29.5957052 269.549328,23.1369154" id="Path-94" stroke="#1F430B" fill-opacity="0.5" fill="#34632B"></path>
            <path d="M273.061869,22.3831918 C272.07239,17.3656543 275.416425,18.0795192 273.177923,21.8987904" id="Path-95" stroke="#1F430B" fill-opacity="0.5" fill="#34632B"></path>
            <path d="M277.424005,24.1902363 C276.509942,30.2168027 279.848649,29.0024466 277.781629,24.5156935" id="Path-96" stroke="#1F430B" fill-opacity="0.5" fill="#34632B"></path>
            <path d="M281.771003,24.7282498 C281.456056,20.8989748 286.454344,21.1002171 282.158272,24.7181581" id="Path-97" stroke="#1F430B" fill-opacity="0.5" fill="#34632B"></path>
            <path d="M284.729762,27.4858059 C283.273949,31.0476412 282.927756,30.9516253 285.421043,28.3126943" id="Path-98" stroke="#1F430B" fill-opacity="0.5" fill="#34632B"></path>
            <path d="M288.524871,28.5126361 C293.946454,27.0500776 293.873716,29.7803932 289.665863,28.8141255" id="Path-99" stroke="#1F430B" fill-opacity="0.5" fill="#34632B"></path>
            <path d="M290.219014,32.7341189 C286.194722,33.8685711 289.72997,37.5382727 290.613221,32.9826269" id="Path-100" stroke="#1F430B" fill-opacity="0.5" fill="#34632B"></path>
            <path d="M292.638499,34.7284904 C293.765189,32.3639997 295.752491,32.5425132 294.376793,35.7382908" id="Path-101" stroke="#1F430B" fill-opacity="0.5" fill="#34632B"></path>
            <path d="M294.131439,39.8462421 C287.690079,40.8654885 291.963885,41.8522195 294.079719,40.2505407" id="Path-102" stroke="#1F430B" fill-opacity="0.5" fill="#34632B"></path>
            <path d="M296.590659,41.9762208 C299.584249,39.6577813 302.159112,43.9766632 295.33992,41.8399829" id="Path-103" stroke="#1F430B" fill-opacity="0.5" fill="#34632B"></path>
            <path d="M296.447483,46.9558423 C291.819046,43.6639588 292.008037,53.2279182 296.587506,46.5187457" id="Path-104" stroke="#1F430B" fill-opacity="0.5" fill="#34632B"></path>
            <path d="M297.944839,50.0047961 C304.117849,48.1957015 302.737427,52.3417946 298.475284,49.8912645" id="Path-105" stroke="#1F430B" fill-opacity="0.5" fill="#34632B"></path>
            <path d="M296.33269,54.7523086 C293.288187,53.3684433 293.696293,56.2832208 295.503279,55.2266184" id="Path-106" stroke="#1F430B" fill-opacity="0.5" fill="#34632B"></path>
            <path d="M297.778326,58.0649081 C302.885523,56.0856555 301.43014,60.1444647 298.363644,58.7170839" id="Path-107" stroke="#1F430B" fill-opacity="0.5" fill="#34632B"></path>
            <path d="M296.353892,62.7450369 C293.970295,60.1808943 290.627931,65.0588729 296.142333,63.2781277" id="Path-108" stroke="#1F430B" fill-opacity="0.5" fill="#34632B"></path>
            <path d="M298.110971,65.6190914 C303.189043,64.1339051 303.58869,67.0400959 299.055839,65.7872542" id="Path-109" stroke="#1F430B" fill-opacity="0.5" fill="#34632B"></path>
            <path d="M296.751368,69.5726424 C288.61643,69.9428078 292.139077,72.534656 296.739039,69.9587757" id="Path-110" stroke="#1F430B" fill-opacity="0.5" fill="#34632B"></path>
            <path d="M298.462091,73.602631 C301.36166,71.3730539 306.210959,73.154434 298.431516,73.7944648 L298.462091,73.602631 Z" id="Path-111" stroke="#1F430B" fill-opacity="0.5" fill="#34632B"></path>
            <path d="M298.038972,77.5877433 C294.87377,77.8841938 296.106275,80.6951945 298.035027,78.123793" id="Path-112" stroke="#1F430B" fill-opacity="0.5" fill="#34632B"></path>
            <path d="M300.952478,81.2942282 C303.913968,77.7110952 304.31263,81.360114 302.058604,81.8327436" id="Path-113" stroke="#1F430B" fill-opacity="0.5" fill="#34632B"></path>
            <path d="M302.527586,86.4426718 C298.636647,87.9081043 301.938749,91.6601742 302.871309,86.9984473" id="Path-114" stroke="#1F430B" fill-opacity="0.5" fill="#34632B"></path>
            <path d="M306.377083,87.9541641 C309.542353,83.6118862 310.967231,87.224119 306.290783,88.2658323" id="Path-115" stroke="#1F430B" fill-opacity="0.5" fill="#34632B"></path>
            <path d="M308.240682,91.738566 C305.209936,95.560322 308.008672,96.4194731 308.490707,92.7238716" id="Path-116" stroke="#1F430B" fill-opacity="0.5" fill="#34632B"></path>
            <path d="M311.711936,93.0626629 C314.342525,90.1725166 314.726907,92.1295251 312.401847,93.3886323" id="Path-117" stroke="#1F430B" fill-opacity="0.5" fill="#34632B"></path>
            <path d="M314.180625,96.6443818 C310.645387,98.0540485 312.572548,100.286809 313.891148,97.2401021" id="Path-118" stroke="#1F430B" fill-opacity="0.5" fill="#34632B"></path>
            <path d="M316.523561,96.7878873 C317.402001,93.3205705 322.686625,94.8900239 315.572283,97.3643749" id="Path-119" stroke="#1F430B" fill-opacity="0.5" fill="#34632B"></path>
            <path d="M318.000533,99.8148171 C316.980755,102.410572 318.031908,105.688 318.724965,100.864725" id="Path-120" stroke="#1F430B" fill-opacity="0.5" fill="#34632B"></path>
            <path d="M321.892934,101.079736 C324.067121,95.5720716 325.802559,99.4340401 322.604051,101.068394" id="Path-121" stroke="#1F430B" fill-opacity="0.5" fill="#34632B"></path>
            <path d="M324.222062,104.714222 C320.744425,108.502244 324.341278,108.248027 324.471101,105.432736" id="Path-122" stroke="#1F430B" fill-opacity="0.5" fill="#34632B"></path>
            <path d="M328.064162,105.478598 C330.546193,103.865545 332.761271,106.32792 327.61392,106.308563" id="Path-123" stroke="#1F430B" fill-opacity="0.5" fill="#34632B"></path>
            <path d="M330.867697,109.968199 C326.689276,111.448322 330.571712,115.348567 331.869276,110.906655" id="Path-124" stroke="#1F430B" fill-opacity="0.5" fill="#34632B"></path>
            <path d="M334.391225,111.794318 C337.994006,108.263153 337.747119,111.09749 335.414503,112.260341" id="Path-125" stroke="#1F430B" fill-opacity="0.5" fill="#34632B"></path>
            <path d="M335.778937,115.275929 C331.969134,116.124441 334.192742,119.418073 336.423479,116.397342" id="Path-126" stroke="#1F430B" fill-opacity="0.5" fill="#34632B"></path>
            <path d="M338.966633,116.56156 C341.885085,113.562809 343.979814,116.295841 339.549531,116.829338" id="Path-127" stroke="#1F430B" fill-opacity="0.5" fill="#34632B"></path>
            <path d="M339.788707,120.803108 C335.840184,120.121522 335.229134,124.141131 339.567285,120.913573 L339.788707,120.803108 Z" id="Path-128" stroke="#1F430B" fill-opacity="0.5" fill="#34632B"></path>
            <path d="M342.320025,122.04485 C347.134629,118.866341 347.207916,122.361136 344.088446,121.738606" id="Path-129" stroke="#1F430B" fill-opacity="0.5" fill="#34632B"></path>
            <path d="M342.24556,126.778064 C336.833383,124.428383 338.746415,130.670962 342.307696,127.265786" id="Path-130" stroke="#1F430B" fill-opacity="0.5" fill="#34632B"></path>
            <path d="M343.977489,129.219137 C346.96341,129.098975 348.039023,131.431375 344.847891,130.662575" id="Path-131" stroke="#1F430B" fill-opacity="0.5" fill="#34632B"></path>
            <path d="M342.045343,134.161445 C338.216112,130.054062 338.132993,133.879719 340.415496,134.753714" id="Path-132" stroke="#1F430B" fill-opacity="0.5" fill="#34632B"></path>
            <path d="M342.665227,138.29894 C346.629478,142.277321 347.237764,138.29958 343.412343,138.73636" id="Path-133" stroke="#1F430B" fill-opacity="0.5" fill="#34632B"></path>
            <path d="M339.97265,141.512279 C334.438103,137.283797 334.120933,141.713065 340.151662,141.72877 L339.97265,141.512279 Z" id="Path-134" stroke="#1F430B" fill-opacity="0.5" fill="#34632B"></path>
            <path d="M339.622517,146.472834 C344.943754,144.601371 344.466021,150.875697 340.627055,147.152389" id="Path-135" stroke="#1F430B" fill-opacity="0.5" fill="#34632B"></path>
            <path d="M336.656244,149.802062 C333.580607,146.528296 333.036728,150.590884 337.902917,149.784802" id="Path-136" stroke="#1F430B" fill-opacity="0.5" fill="#34632B"></path>
            <path d="M335.727157,154.920424 C340.876565,154.366292 338.601582,158.686512 336.205016,154.90415" id="Path-137" stroke="#1F430B" fill-opacity="0.5" fill="#34632B"></path>
            <path d="M332.797377,156.801775 C331.690241,152.279148 329.319543,155.55522 332.279081,156.623257" id="Path-138" stroke="#1F430B" fill-opacity="0.5" fill="#34632B"></path>
            <path d="M332.857048,159.999827 C340.046012,159.439584 336.569404,163.922607 333.748162,160.019553" id="Path-139" stroke="#1F430B" fill-opacity="0.5" fill="#34632B"></path>
            <path d="M330.35236,161.568524 C329.368407,157.585592 324.963574,160.659984 329.565299,162.0523" id="Path-140" stroke="#1F430B" fill-opacity="0.5" fill="#34632B"></path>
            <path d="M329.934665,165.595061 C333.467351,165.311663 333.234773,169.034105 329.284205,166.143932" id="Path-141" stroke="#1F430B" fill-opacity="0.5" fill="#34632B"></path>
            <path d="M325.923909,169.366148 C323.042002,165.574794 319.783309,170.183477 325.873115,169.512119 L325.923909,169.366148 Z" id="Path-142" stroke="#1F430B" fill-opacity="0.5" fill="#34632B"></path>
            <path d="M324.955864,174.112184 C329.680028,171.886306 329.220831,177.004191 324.855755,174.559961" id="Path-143" stroke="#1F430B" fill-opacity="0.5" fill="#34632B"></path>
            <path d="M322.360436,177.374838 C320.036254,174.526093 317.583664,179.13478 322.290903,178.116529" id="Path-144" stroke="#1F430B" fill-opacity="0.5" fill="#34632B"></path>
            <path d="M322.272656,181.342197 C326.139069,180.470812 324.702919,184.377731 321.74647,181.482743" id="Path-145" stroke="#1F430B" fill-opacity="0.5" fill="#34632B"></path>
            <path d="M320.21969,184.792246 C316.949702,182.722299 315.762443,185.773286 319.927254,184.888902" id="Path-146" stroke="#1F430B" fill-opacity="0.5" fill="#34632B"></path>
            <path d="M320.584618,188.707331 C326.440542,187.078751 324.275578,189.90588 320.945108,188.857248" id="Path-147" stroke="#1F430B" fill-opacity="0.5" fill="#34632B"></path>
            <path d="M319.056852,193.036659 C316.463398,189.775098 311.95081,193.51897 318.546939,193.407998" id="Path-148" stroke="#1F430B" fill-opacity="0.5" fill="#34632B"></path>
            <path d="M320.345442,196.078877 C329.392093,193.760611 325.710275,197.029225 321.240009,196.081342" id="Path-149" stroke="#1F430B" fill-opacity="0.5" fill="#34632B"></path>
            <path d="M319.322657,200.273083 C313.911095,199.849318 313.260628,203.669063 318.9814,200.577847" id="Path-150" stroke="#1F430B" fill-opacity="0.5" fill="#34632B"></path>
            <path d="M321.388939,202.892181 C326.405559,200.574532 326.648785,203.479035 321.894907,202.938537" id="Path-151" stroke="#1F430B" fill-opacity="0.5" fill="#34632B"></path>
            <path d="M321.478198,206.777678 C316.852356,207.830362 319.720457,209.163935 321.136941,207.628355" id="Path-152" stroke="#1F430B" fill-opacity="0.5" fill="#34632B"></path>
            <path d="M323.857134,209.294202 C327.149456,206.467026 326.385925,209.481854 323.667273,209.430803" id="Path-153" stroke="#1F430B" fill-opacity="0.5" fill="#34632B"></path>
            <path d="M324.302938,213.354272 C319.139878,213.556164 323.037974,216.538057 323.938503,213.517997" id="Path-154" stroke="#1F430B" fill-opacity="0.5" fill="#34632B"></path>
            <path d="M326.77212,215.029489 C328.34966,210.139755 331.121201,216.637758 327.826466,214.468289" id="Path-155" stroke="#1F430B" fill-opacity="0.5" fill="#34632B"></path>
            <path d="M328.067614,219.548185 C322.893455,220.898387 326.059358,223.196173 327.793918,220.173001" id="Path-156" stroke="#1F430B" fill-opacity="0.5" fill="#34632B"></path>
            <path d="M330.874108,220.739132 C332.560435,216.670631 334.814138,220.626751 331.483143,220.722366" id="Path-157" stroke="#1F430B" fill-opacity="0.5" fill="#34632B"></path>
            <path d="M331.991083,224.954544 C328.026528,227.589835 330.615348,228.421821 331.997001,225.758865" id="Path-158" stroke="#1F430B" fill-opacity="0.5" fill="#34632B"></path>
            <path d="M334.857741,226.122807 C337.562604,221.706469 338.385925,225.498744 335.068807,225.673551" id="Path-159" stroke="#1F430B" fill-opacity="0.5" fill="#34632B"></path>
            <path d="M335.363215,230.24452 C330.64221,229.908209 333.500206,234.840447 334.979055,230.21937" id="Path-160" stroke="#1F430B" fill-opacity="0.5" fill="#34632B"></path>
            <path d="M337.414703,230.584298 C339.099561,225.28554 340.860254,230.558377 337.922643,230.077837" id="Path-161" stroke="#1F430B" fill-opacity="0.5" fill="#34632B"></path>
            <path d="M337.826479,234.985132 C333.316188,234.861317 336.259237,238.821819 337.52566,235.073405" id="Path-162" stroke="#1F430B" fill-opacity="0.5" fill="#34632B"></path>
            <path d="M339.865145,236.410324 C342.994053,235.232519 342.838961,237.905915 340.256209,237.057825" id="Path-163" stroke="#1F430B" fill-opacity="0.5" fill="#34632B"></path>
            <path d="M339.714242,241.028636 C335.238277,240.583458 338.007233,243.576003 339.506134,241.496138" id="Path-164" stroke="#1F430B" fill-opacity="0.5" fill="#34632B"></path>
            <path d="M341.449129,243.281326 C344.978362,241.462256 346.435929,246.351384 341.664634,243.199957" id="Path-165" stroke="#1F430B" fill-opacity="0.5" fill="#34632B"></path>
            <path d="M340.277908,246.950825 C335.296614,245.407716 336.960895,248.32779 339.744324,247.315753" id="Path-166" stroke="#1F430B" fill-opacity="0.5" fill="#34632B"></path>
            <path d="M341.907755,249.234584 C345.267653,247.966082 345.049763,250.643271 342.272683,249.55217" id="Path-167" stroke="#1F430B" fill-opacity="0.5" fill="#34632B"></path>
            <path d="M340.237963,252.192967 C335.866369,249.470139 336.837982,252.687728 339.73742,251.76393" id="Path-168" stroke="#1F430B" fill-opacity="0.5" fill="#34632B"></path>
            <path d="M341.144365,253.421886 C342.338541,258.530759 347.689098,255.968933 341.425458,254.005771" id="Path-169" stroke="#1F430B" fill-opacity="0.5" fill="#34632B"></path>
            <path d="M217.174289,257.376782 C220.70027,257.20081 227.475863,260.40592 227.752232,256.848865 C232.884013,190.799434 221.609538,116.111868 220.324049,49.2473875 C220.124996,38.893695 231.19774,19.1220436 220.993373,18.1878125 L219.780715,15.2245784 C215.038281,14.7903986 208.872687,13.3017664 205.577924,16.776496 C202.428953,20.0974697 205.234048,25.9715439 205.228825,30.5713192 C205.202548,53.7149316 204.190561,76.8950156 205.483431,100.001725 C208.192541,148.42007 213.312334,196.66983 217.226785,245.003887 L217.174289,257.376782 Z" id="Path-3" fill-opacity="0.5" fill="#000000"></path>
        </g>
    </g>
</svg>